<svg xmlns="http://www.w3.org/2000/svg" viewBox="0 0 2228.833 2073.333">
  <path fill="#5059C9" d="M1554.637 777.5h575.713c54.391 0 98.483 44.092 98.483 98.483v524.398c0 199.901-162.051 361.952-361.952 361.952h-1.711c-199.901.028-361.975-162.023-362.003-361.924V828.971c0-28.427 23.043-51.471 51.47-51.471z"/>
  <circle fill="#5059C9" cx="1943.75" cy="440.583" r="233.25"/>
  <circle fill="#7B83EB" cx="1218.083" cy="336.917" r="336.917"/>
  <path fill="#7B83EB" d="M1667.323 777.5H717.01c-53.743 1.33-96.257 45.931-95.01 99.676v598.105c-7.505 322.519 247.657 590.16 570.167 598.053 322.51-7.893 577.671-275.534 570.167-598.053V877.176c1.245-53.745-41.268-98.346-95.011-99.676z"/>
  <path opacity=".1" d="M1244.167 777.5v838.145c-.258 38.435-23.549 72.964-59.09 87.598a91.856 91.856 0 0 1-35.765 7.257H783.876c-3.825-10.093-7.267-20.186-10.326-30.662-19.017-60.39-28.756-123.337-28.8-186.738V877.176c-1.246-53.745 41.267-98.347 95.01-99.676h404.407z"/>
  <path opacity=".2" d="M1192.167 777.5v890.145c0 19.735-7.677 38.727-21.402 52.985a76.27 76.27 0 0 1-27.688 18.87 91.856 91.856 0 0 1-35.765 7.257H820.063c-11.015-20.186-20.978-40.754-29.508-61.704-8.53-20.95-15.078-41.918-19.679-62.666V877.176c-1.246-53.745 41.267-98.347 95.01-99.676h326.281z"/>
  <path opacity=".2" d="M1192.167 777.5v786.145c-.395 52.223-42.632 94.46-94.855 94.855H790.554c-4.601-20.747-11.149-41.716-19.679-62.666-19.017-60.39-28.756-123.337-28.8-186.738V877.176c-1.246-53.745 41.267-98.347 95.01-99.676h355.082z"/>
  <path opacity=".2" d="M1140.167 777.5v786.145c-.395 52.223-42.632 94.46-94.855 94.855H790.554c-4.601-20.747-11.149-41.716-19.679-62.666-19.017-60.39-28.756-123.337-28.8-186.738V877.176c-1.246-53.745 41.267-98.347 95.01-99.676h303.082z"/>
  <linearGradient id="a" gradientUnits="userSpaceOnUse" x1="198.099" y1="1683.074" x2="942.234" y2="394.261" gradientTransform="matrix(1 0 0 -1 0 2075.333)">
    <stop offset="0" stop-color="#5a62c3"/>
    <stop offset=".5" stop-color="#4f55bd"/>
    <stop offset="1" stop-color="#3940ab"/>
  </linearGradient>
  <path fill="url(#a)" d="M95.01 777.5h950.312c52.473 0 95.01 42.538 95.01 95.01v950.312c0 52.473-42.538 95.01-95.01 95.01H95.01c-52.473 0-95.01-42.538-95.01-95.01V872.51c0-52.472 42.538-95.01 95.01-95.01z"/>
  <path fill="#FFF" d="M820.211 1100.522H630.241v517.297H511.573v-517.297H320.123V999.679h500.088v100.843z"/>
</svg>
